<svg width="28" height="28" viewBox="0 0 28 28" fill="none" xmlns="http://www.w3.org/2000/svg">
<path d="M21 9.33313C21 7.47661 20.2625 5.69614 18.9498 4.38338C17.637 3.07063 15.8565 2.33313 14 2.33313C12.1435 2.33313 10.363 3.07063 9.05028 4.38338C7.73753 5.69614 7.00003 7.47661 7.00003 9.33313C7.00003 17.4998 3.50003 19.8331 3.50003 19.8331H24.5C24.5 19.8331 21 17.4998 21 9.33313Z" fill="#165DFF" fill-opacity="0.1" stroke="black" stroke-width="1.4" stroke-linecap="round" stroke-linejoin="round"/>
<path d="M16.0181 24.5C15.8129 24.8536 15.5185 25.1471 15.1643 25.3511C14.8101 25.5551 14.4085 25.6625 13.9997 25.6625C13.5909 25.6625 13.1893 25.5551 12.8351 25.3511C12.4809 25.1471 12.1865 24.8536 11.9814 24.5" stroke="black" stroke-width="1.4" stroke-linecap="round" stroke-linejoin="round"/>
</svg>
